<svg xmlns="http://www.w3.org/2000/svg" xmlns:xlink="http://www.w3.org/1999/xlink" width="620" height="274.96" viewBox="0 0 164.04 72.751" xmlns:v="https://vecta.io/nano"><g fill-rule="evenodd"><path d="M38.364 5.294v6.614H11.906v33.073h19.844v6.614H5.291v6.614h33.073V44.981h6.615V25.137H25.135v13.229H18.52V18.523h26.458V5.294zm39.687 0v13.229H64.822v6.614h19.844v-6.614h6.614v-6.615h-6.614V5.294zM91.28 18.523v33.072h-6.614V31.752H64.822v19.844h-6.614v6.614h13.229V38.366h6.614V58.21h19.844V18.523zm52.916-13.229v33.073h-6.614v-6.615h-13.229v6.615h-6.614v6.614h6.614v6.614h-6.614v-6.614h-6.614V58.21h19.844v-6.614h13.229v6.614h13.229v-6.614h6.614V5.294h-6.614v39.687h-6.615V5.294zM31.749 31.752h6.615v6.615h-6.614z"/><path d="M13.229.002v6.614H0v46.302h33.073V39.689h6.615V26.46H26.458v13.229H13.229V13.231h26.458V.002H19.843zm52.916 0v6.614h13.229V.002h-6.615zm13.229 6.614v13.229H66.145V6.616H59.53v6.615h-6.615v39.687h13.229V33.074h13.229v19.844h13.229V13.231h-6.615V6.616zM105.832.002v46.302h6.615v6.614h13.229v-6.614h13.229v6.614h13.229v-6.614h6.615V.002h-13.229v39.687h-6.615v-6.614h-13.229v6.614h-6.614V.002h-6.614z" fill="#14b53a"/></g><path d="M20.419 61.18h7.441q1.654 0 1.662 1.654l-.008.413v.017q0 .802-.827.81-.827 0-.827-.827 0-.422-.405-.422l-6.209.008q-.827 0-.827.827v4.134q0 .827.827.827h6.201q.413 0 .413-.827v-.827q0-.413-.413-.413h-.827q-.835 0-.835-.835.008-.819.827-.819h1.249q1.654 0 1.654 1.654v2.059q0 1.654-1.629 1.654h-.017l-7.45.008q-1.645 0-1.654-1.654v-5.788q0-1.654 1.654-1.654z"/><use xlink:href="#B"/><use xlink:href="#C"/><use xlink:href="#C" x="16.537"/><use xlink:href="#B" x="35.553"/><path d="M77.471 63.66v-1.67q0-.81.827-.81.827 0 .827.819v1.662h1.034q.827 0 .827.827 0 .827-.827.827h-1.034v2.481q0 .827.827.827.827 0 .827.827 0 .827-.827.827-2.481 0-2.481-2.481v-2.481h-.827q-.827 0-.827-.827 0-.827.827-.827zm5.79-2.48q.827 0 .827.827v7.433q0 .835-.827.835-.827 0-.827-.827V61.99q0-.81.827-.81zm3.3 2.48q.827 0 .827.827l.008 4.953q0 .835-.827.835-.827 0-.827-.827l-.008-4.977q0-.81.827-.81zm0-2.481q.827 0 .827.827 0 .827-.827.827-.827 0-.827-.827 0-.827.827-.827zm6.62.001q.827 0 .827.827-.008.827-.827.827-.827 0-.827.827h.827q.819 0 .819.827v.017q0 .81-.819.81h-.827l-.008 4.134v.017q0 .81-.81.81-.827 0-.835-.827v-4.134h-.827q-.827 0-.827-.827 0-.827.827-.827h.827q0-2.481 2.481-2.481zm9.09 3.31q0-.827.835-.827.819 0 .819.827v5.788q0 2.481-2.481 2.481h-3.307q-.827 0-.827-.827 0-.827.827-.827h3.307q.827 0 .827-.827h-4.142q-2.472 0-2.472-2.481V64.49q0-.827.827-.827.827 0 .827.827v3.307q0 .827.81.827h4.142z"/><path d="M113.851 63.66l5.78.008q1.654 0 1.662 1.654v.215q0 .802-.827.81-.827 0-.827-.827-.008-.207-.207-.207h-4.754q-.827 0-.827.827v1.654q0 .827.827.827h4.754q.198 0 .207-.207v-.017q0-.819.819-.819.827.008.835.835l-.008.207q0 1.654-1.645 1.654h-5.788q-1.645 0-1.654-1.654v-3.307q0-1.654 1.654-1.654zm14.05 1.65h-3.307v4.134q0 .827-.819.827-.827 0-.827-.827l-.008-5.788h9.095q2.481 0 2.481 2.481l.008 3.307q0 .827-.827.827-.827 0-.835-.827v-3.307q0-.827-.819-.827h-2.489v4.134q0 .827-.819.827-.827 0-.827-.827zm10.33-1.67l6.201.008q.827 0 .827.819 0 .827-.827.827h-6.193q-.413.017-.413.413 0 .413.413.413h4.961q2.067.008 2.075 2.084-.008 2.067-2.075 2.067h-6.201q-.827 0-.827-.827 0-.827.827-.827h6.201q.413 0 .413-.413 0-.43-.413-.43h-4.961q-2.067 0-2.067-2.067 0-2.067 2.059-2.067z" fill="#fc0"/><defs ><path id="B" d="M32.821 67.79q0 .827.827.827h4.142q.827 0 .827.827-.008.827-.827.827h-4.969q-1.645 0-1.654-1.654V65.31q0-1.654 1.654-1.654l4.134.008q1.654 0 1.662 1.654v.819q0 1.654-1.654 1.654zm3.522-1.654q.62 0 .62-.413 0-.413-.413-.413h-2.902q-.827 0-.827.827z"/><path id="C" d="M40.262 63.66h5.779q2.481 0 2.489 2.481v3.307q0 .827-.827.827-.827 0-.827-.827l-.008-3.307q0-.827-.819-.827h-4.134v4.134q0 .827-.819.827-.827 0-.827-.827z"/></defs></svg>